<svg width="30" height="30" viewBox="0 0 30 30" fill="none" xmlns="http://www.w3.org/2000/svg">
<circle cx="15" cy="15" r="15" fill="#1C1C1C"/>
<path d="M14.6854 23.2C13.0187 23.2 11.4654 22.8267 10.0254 22.08L10.6254 19.76C11.1321 20.0133 11.5921 20.22 12.0054 20.38C12.4187 20.5267 12.8187 20.6333 13.2054 20.7C13.6054 20.7667 14.0121 20.8 14.4254 20.8C15.4654 20.8 16.2587 20.6 16.8054 20.2C17.3521 19.8 17.6254 19.22 17.6254 18.46C17.6254 17.94 17.4787 17.52 17.1854 17.2C16.9054 16.8667 16.4454 16.6333 15.8054 16.5C15.1787 16.3533 14.3387 16.28 13.2854 16.28H11.8454V14L16.3054 10.84V10.8H10.1854V8.4H20.0854V10.8L15.3654 14.18V14.22H16.1254C17.4987 14.22 18.5721 14.6 19.3454 15.36C20.1187 16.1067 20.5054 17.14 20.5054 18.46C20.5054 19.98 19.9987 21.1533 18.9854 21.98C17.9721 22.7933 16.5387 23.2 14.6854 23.2Z" fill="white"/>
</svg>
