<svg width="30" height="30" viewBox="0 0 30 30" fill="none" xmlns="http://www.w3.org/2000/svg">
<circle cx="15" cy="15" r="15" fill="#1C1C1C"/>
<path d="M13.7454 22.2C12.8921 22.2 12.1254 22.12 11.4454 21.96C10.7787 21.8 10.1187 21.56 9.46539 21.24L10.1254 18.9C10.7921 19.22 11.3921 19.4533 11.9254 19.6C12.4587 19.7333 13.0187 19.8 13.6054 19.8C14.7254 19.8 15.5787 19.5733 16.1654 19.12C16.7654 18.6533 17.0654 17.9867 17.0654 17.12C17.0654 16.3867 16.8454 15.8333 16.4054 15.46C15.9787 15.0733 15.3587 14.88 14.5454 14.88C14.0787 14.88 13.6854 14.96 13.3654 15.12C13.0587 15.2667 12.7587 15.5267 12.4654 15.9H9.86539L10.3254 7.4H19.2454V9.8H12.8454L12.6654 13.08H12.7054C13.0921 12.9067 13.4654 12.78 13.8254 12.7C14.1854 12.62 14.5854 12.58 15.0254 12.58C16.5721 12.58 17.7721 12.9867 18.6254 13.8C19.4921 14.6133 19.9254 15.76 19.9254 17.24C19.9254 18.84 19.3921 20.0667 18.3254 20.92C17.2721 21.7733 15.7454 22.2 13.7454 22.2Z" fill="white"/>
</svg>
