<svg width="1280" height="31" viewBox="0 0 1280 31" fill="none" xmlns="http://www.w3.org/2000/svg">
<path d="M1280 30H1271.9C1266.2 30 1234.9 19.1 1234.5 19.3C1232.3 20.5 1216.9 18.5 1214.6 15.2C1214.6 15.2 1204.8 11.9 1204.3 11.9C1203 11.9 1191.7 14.9 1191.3 14.4C1190.6 13.7 1177.5 10.7 1177.5 9.1C1175.2 10.4 1156.3 1.3 1154.1 2.4C1153.1 1.6 1151.9 0.9 1150.8 0C1149 1.9 1147.5 3.4 1146.1 4.9C1143.4 4.1 1141.3 3.5 1139 2.8C1138.5 2.9 1138 3.1 1137.5 3.3C1133.5 4.6 1132.2 4.3 1130.2 2C1128.5 -0.0999999 1124.9 -0.2 1122.1 1.2C1120.1 2.2 1117.5 3.8 1115.6 3.5C1111.1 2.8 1109.6 4.6 1107.5 6.1C1106 7.2 1104.4 8.2 1102.9 9.2C1101.1 8.4 1099.4 8 1097.6 7.2C1097.3 8 1096.9 8.5 1096.8 9.2C1096.3 9.2 1096 9.2 1095.6 9.1V3.5C1093.6 4.3 1092.1 4.7 1090.8 5.3C1089.5 4.5 1088.5 3.7 1087.3 2.9C1082.2 4.1 1077.2 4.9 1072 3C1071.2 2.7 1069.8 2.7 1069 2.9C1067.8 3.2 1066.8 3.9 1065.7 4.5C1064.5 4.2 1063.4 3.7 1061.9 3.4C1060.2 4.5 1058.9 6.3 1055.4 5C1054.6 4.7 1053.1 5.1 1051.9 5.3C1047.9 6.1 1044.1 6.7 1040 7.3C1038.5 7.5 1037 7.1 1035.3 7C1034.3 6.9 1033.5 6.8 1032.5 6.8C1026.5 6.5 1020.7 9.1 1014.7 6.9C1014.2 6.7 1013.4 6.7 1012.9 6.8C1009.1 8.4 1004.6 8 1000.4 8.1C999.4 8.1 998.2 8.6 997.3 9C995.5 9.8 987.8 10.5 985.8 10.1C981.3 9.3 977.7 9.8 975.7 12.4C962.9 10.8 962.9 10.8 958.6 13.3C956.3 12.9 952.6 11.7 951.5 12.2C946.8 14.6 944.5 12.4 941.7 10.8C936.7 11.9 930.9 10 925.9 12.2C918.6 9.5 911 9.5 903 12C898 8.3 893.4 8.2 889.2 12C888.9 10.7 888.5 9.5 888.2 8.2C884.9 9 882.1 9.3 879.6 10C876.9 10.7 873.6 12.3 872.1 11.9C867.9 10.6 866.8 13.7 863.1 13.3C862.1 12.4 860.8 11.1 859.1 9.8C857.8 10.1 856.3 10.5 855.1 10.8C851.6 11.9 848.3 12.8 844.8 10.8C844.3 10.5 843 10.6 842 10.7C839.5 10.9 837.2 11.4 834.5 11.6C833.7 12.5 832.8 13.5 832.2 14.5C823.7 13.4 815.8 11.9 807.5 14.1C807.2 14.2 806.3 14 805.8 13.8C803.5 12.6 802.1 13.5 800.7 14.6C799.5 15.3 798 16.4 796.7 16.4C789.4 16.6 781.9 16 774.6 16.7C771.6 17 767.8 16.4 765.6 17.4C762.3 18.9 759.6 18.3 756.5 17.9C753.8 17.5 751.5 17 749.4 15.8C747.4 14.8 745.1 15.3 744.8 16.9C744.5 18.4 743 19.2 741.1 19C737.8 18.2 734.3 18.7 731.1 17.2C726.3 15.1 720.5 14.5 714.8 16.5C713.1 17.2 711.5 17.5 709.8 18.1C709.5 18.2 709 18.2 708.3 18.2C707.1 17.5 706 17 704.8 16.3C702.8 18.1 700.2 18.1 697.7 17.2C694.9 16.4 692.1 15.9 688.9 16.3C686.2 16.6 683.4 16.8 680.6 17C678.6 17.1 676.1 17.8 674.8 16.1C674.6 15.8 673.3 15.7 672.6 15.8C668.9 16.5 665.3 17.3 661.6 18C661.4 17.7 661.1 17.5 661.1 17.3C660.9 17 660.9 16.5 660.9 16.5C659.1 17 657.2 17.7 655.3 17.9C653.5 18.1 650.6 17.2 649.5 17.8C645.7 19.7 641.4 19 637.2 19.7C635 17.2 635 17.2 631.4 18.8C630.7 19.1 629.9 19.3 629.1 19.3C626.1 19.2 623 19.1 620 18.8C617.3 18.5 614.4 18.3 612.4 17.4C610.4 16.5 608.6 16.1 606.3 16.2C601.7 16.4 597 16.5 592.4 16.7C588.1 16.9 583.8 17.1 578.1 17.5C576.4 17 573.4 16.3 570.6 15.3C566.9 13.9 563.5 13.9 559.8 15.4C558.1 16.1 555.3 17 554.3 16.6C551 15.2 552.6 17.9 551.3 17.7C549.5 17.4 547.6 16.8 546.2 17C542.5 17.4 539.1 16.8 535.4 16.9C530.4 17 525.4 16.9 523.8 21C518.8 18.6 514.7 20 510.8 21.5C509.5 20.7 508.6 20.1 508 19.6C506.3 20.1 505 20.9 503.8 20.7C501.1 20.4 498.8 19.6 496.5 18.9C495.5 19.3 494.5 19.9 493.5 20C488.4 20.4 483.2 20.4 478.2 20.9C476.2 21.1 473.2 20.4 471.6 22C471.3 22.3 468.8 22.4 468.3 22C466.1 20.1 463.2 20.8 460.3 21C457 21.3 453.7 21.5 450.5 20.3C449 19.8 446.5 19.5 445.2 20.1C440.6 22 435.7 22.7 430.3 23.4C424.7 24.2 420.5 22.9 416.4 21.2C414.7 22.2 413.1 22.8 410.9 21.6C406.1 18.6 400.8 19.5 395.3 20.9C392.5 20.1 389.8 17.6 385.7 19.7C380.1 18.9 374.6 19 369.3 20.7C368.6 20.9 367.3 20.8 367 20.5C365.3 19.5 363.5 18.7 361 18.9C359.8 16.4 357 18 354.9 18.1C352.4 18.1 349.8 19.1 347.8 18.6C345.3 17.9 342.8 18.2 340.5 17.8C337.7 17.4 334.5 18.6 331.5 18.6C326.2 18.9 321.5 20 317.6 22.2C316.8 22.6 315.9 23.1 315.1 23.1C311.3 23.4 307.5 23.8 303.6 23.5C299.9 23.2 296.3 22.8 292.5 23.4C291.5 23.5 290.2 22.9 289.2 22.5C286.7 21.5 284.4 20.6 281.1 21.4C278.9 21.8 276.9 21.4 277.3 19.6C275 19.7 272.3 20.4 270.2 19.9C268.2 19.5 267.2 19 265.7 20.4C265 20.9 262.5 20.5 261.1 20.9C256.9 21.8 253 23.3 248.8 23.9C246.6 24.2 243.3 24.2 241.3 22.6C237.8 20 236 20.2 230.3 21.7C229 22 227.5 22.5 226 22.6C222.7 22.8 219.2 22.9 215.2 23.1C213.2 20.2 209.2 17.9 203.7 16.1V19.2C199.2 15.4 192.9 16.2 187.6 14.8C183.1 16.6 178.6 18.2 173 20.3C168 19.3 163.4 17.2 157.7 19.1C156.7 19.4 154.5 19.2 153.7 18.7C150.5 16.8 146.2 16.8 142.7 15.5C138.5 13.9 133.9 12.6 129.4 11.3C128.2 11 117.6 13.7 116.4 13.7C109.8 13.7 96.1 25.2 90.8 23.5C84.7 21.5 77.8 23.7 70.7 22.5C62.6 24.8 55.4 29.7 50.9 30.2H0M172.9 20C173 20 173.2 20 172.9 20V20Z" fill="#2F2F2F"/>
</svg>
