<svg width="173" height="35" viewBox="0 0 173 35" fill="none" xmlns="http://www.w3.org/2000/svg">
<path d="M9.76205 34.1198H7.64536C5.74982 34.1198 4.26497 32.7613 3.98064 30.4551L4.04383 15.0696V8.05606C4.04383 4.29657 3.94905 3.03287 0.442294 3.03287H0V0.631847H9.79364L9.76205 34.1198Z" fill="white"/>
<path d="M51.5588 34.1198H45.7142V7.77173L37.4054 32.6034C37.0263 33.8039 35.9205 34.5937 34.5937 34.5937C33.33 34.5937 32.2874 33.8355 31.8451 32.5718L23.6627 8.02447V32.635C23.6627 33.7407 22.8097 34.6253 21.6724 34.6253C20.5666 34.6253 19.6505 33.7091 19.6505 32.635V7.39262C19.6505 4.01224 19.4925 3.06446 15.6066 3.06446H15.3223V0.663441H26.5692L35.5414 26.7904L44.2609 0.663441H51.5904L51.5588 34.1198Z" fill="white"/>
<path d="M69.7876 16.3965C74.4633 16.3965 76.3588 14.8484 76.3588 10.4571C76.3588 6.03415 74.179 3.94905 69.5665 3.94905H67.355V13.9954C67.3234 15.9226 67.8289 16.3965 69.7876 16.3965ZM81.9507 10.078C81.9507 15.7646 79.0442 19.0502 73.7367 19.4925C69.9772 19.7768 67.6709 19.3977 67.3234 22.0831V34.0882H65.4279C63.1216 34.0882 61.5104 32.319 61.5104 30.076V7.77173C61.5104 4.1386 61.3209 3.03287 57.6561 3.03287H57.1823V0.631847H72.0307C78.1912 0.631847 81.9507 4.29657 81.9507 10.078Z" fill="white"/>
<path d="M99.2317 34.6885C91.2389 34.6885 87.6057 31.0237 87.6057 23.0309V8.05606C87.6057 4.20179 87.4162 3.00128 83.6883 3.00128H83.246V0.631847H93.3871V20.5351C93.3871 27.7065 94.5561 31.3397 99.5477 31.3397C103.686 31.3397 106.024 28.1172 106.403 21.6408V2.43261C106.403 1.2321 107.383 0.221146 108.615 0.221146C109.815 0.221146 110.731 1.20051 110.795 2.43261V21.1353C110.795 30.6446 108.046 34.6885 99.2317 34.6885Z" fill="white"/>
<path d="M122.926 34.1198C120.809 34.1198 119.451 32.8561 119.009 30.4551V8.11925C119.009 4.26498 118.851 3.06446 115.091 3.06446H114.649V0.663441H124.79V29.6021C124.79 30.5814 125.517 30.8026 126.559 30.8026H133.636V34.1198H122.926Z" fill="white"/>
<path d="M151.896 8.21403C151.896 4.9916 149.811 3.3488 145.831 3.3488C142.829 3.3488 141.344 4.80205 141.344 7.4874C141.344 11.3417 144.44 12.5106 149.306 15.2591C154.171 18.0077 156.446 20.6614 156.446 24.8948C156.446 30.7394 151.959 34.6253 144.978 34.6253C141.376 34.6253 138.217 33.4248 135.847 31.2133C135.279 30.5499 135.026 30.0128 135.026 29.5389C135.026 28.5595 135.847 27.6434 136.669 27.6434C137.332 27.6434 138.027 28.1804 138.943 28.7491C140.523 29.6653 142.071 30.6446 144.788 30.6446C148.611 30.6446 150.538 29.1914 150.538 26.2533C150.538 23.6627 148.8 21.6724 145.325 19.6821C142.734 18.1972 140.46 16.9651 138.754 15.5751C136.637 13.8375 135.468 11.3417 135.468 8.52995C135.468 3.41198 139.48 0.0315933 146.273 0.0315933C149.179 0.0315933 151.675 0.916181 154.139 2.74854L154.203 8.3088H151.928L151.896 8.21403Z" fill="white"/>
<path d="M9.79364 34.1198H7.67695C5.78141 34.1198 4.29657 32.7613 4.01224 30.4551L4.07542 15.0696V8.05606C4.07542 4.29657 3.98064 3.03287 0.473886 3.03287H0V0.631847H9.79364V34.1198Z" fill="white"/>
<path d="M51.5904 34.1198H45.7458V7.77173L37.437 32.6034C37.0579 33.8039 35.9521 34.5937 34.6253 34.5937C33.3616 34.5937 32.319 33.8355 31.8767 32.5718L23.6627 8.02447V32.635C23.6627 33.7407 22.8097 34.6253 21.6724 34.6253C20.5666 34.6253 19.6505 33.7091 19.6505 32.635V7.39262C19.6505 4.01224 19.4925 3.06446 15.6066 3.06446H15.3223V0.663441H26.5692L35.5414 26.7904L44.2609 0.663441H51.5904V34.1198Z" fill="white"/>
<path d="M69.8192 16.3965C74.4949 16.3965 76.3904 14.8484 76.3904 10.4571C76.3904 6.03415 74.2106 3.94905 69.5981 3.94905H67.3866V13.9954C67.355 15.9226 67.8289 16.3965 69.8192 16.3965ZM81.9507 10.078C81.9507 15.7646 79.0442 19.0502 73.7367 19.4925C69.9772 19.7768 67.6709 19.3977 67.3234 22.0831V34.0882H65.4279C63.1216 34.0882 61.5104 32.319 61.5104 30.076V7.77173C61.5104 4.1386 61.3209 3.03287 57.6561 3.03287H57.1823V0.631847H72.0307C78.1912 0.631847 81.9507 4.29657 81.9507 10.078Z" fill="white"/>
<path d="M99.2317 34.6885C91.2389 34.6885 87.6057 31.0237 87.6057 23.0309V8.05606C87.6057 4.20179 87.4162 3.00128 83.6883 3.00128H83.246V0.631847H93.3871V20.5351C93.3871 27.7065 94.5561 31.3397 99.5477 31.3397C103.686 31.3397 106.024 28.1172 106.403 21.6408V2.43261C106.403 1.2321 107.383 0.221146 108.615 0.221146C109.815 0.221146 110.731 1.20051 110.795 2.43261V21.1353C110.826 30.6446 108.078 34.6885 99.2317 34.6885Z" fill="white"/>
<path d="M122.926 34.1198C120.809 34.1198 119.451 32.8561 119.009 30.4551V8.11925C119.009 4.26498 118.851 3.06446 115.091 3.06446H114.649V0.663441H124.79V29.6021C124.79 30.5814 125.517 30.8026 126.559 30.8026H133.636V34.1198H122.926Z" fill="white"/>
<path d="M151.928 8.21403C151.928 4.9916 149.843 3.3488 145.862 3.3488C142.861 3.3488 141.376 4.80205 141.376 7.4874C141.376 11.3417 144.472 12.5106 149.337 15.2591C154.203 18.0077 156.477 20.6614 156.477 24.8948C156.477 30.7394 151.991 34.6253 145.009 34.6253C141.408 34.6253 138.248 33.4248 135.879 31.2133C135.31 30.5499 135.058 30.0128 135.058 29.5389C135.058 28.5595 135.879 27.6434 136.7 27.6434C137.364 27.6434 138.059 28.1804 138.975 28.7491C140.555 29.6653 142.103 30.6446 144.82 30.6446C148.642 30.6446 150.569 29.1914 150.569 26.2533C150.569 23.6627 148.832 21.6724 145.357 19.6821C142.766 18.1972 140.491 16.9651 138.785 15.5751C136.669 13.8375 135.5 11.3417 135.5 8.52995C135.5 3.41198 139.512 0.0315933 146.304 0.0315933C149.211 0.0315933 151.707 0.916181 154.171 2.74854L154.234 8.3088H151.928V8.21403Z" fill="white"/>
<path d="M171.01 5.11797H168.261V1.99032C168.261 0.91618 167.345 0 166.239 0C165.102 0 164.249 0.884587 164.249 1.99032V5.11797H161.5C160.426 5.11797 159.51 6.03415 159.51 7.13988C159.51 8.27721 160.395 9.1302 161.5 9.1302H164.249V11.4996C164.249 12.5738 165.165 13.49 166.271 13.49C167.408 13.49 168.261 12.6054 168.261 11.4996V9.1302H171.01C172.084 9.1302 173 8.21402 173 7.10829C173 5.97096 172.115 5.11797 171.01 5.11797Z" fill="#CC1421"/>
</svg>
