<svg width="30" height="30" viewBox="0 0 30 30" fill="none" xmlns="http://www.w3.org/2000/svg">
<circle cx="15" cy="15" r="15" fill="#1C1C1C"/>
<path d="M10.3654 20.56C11.6721 19.5867 12.7721 18.72 13.6654 17.96C14.5721 17.2 15.2987 16.52 15.8454 15.92C16.3921 15.3067 16.7921 14.7467 17.0454 14.24C17.2987 13.7333 17.4254 13.2467 17.4254 12.78C17.4254 11.3667 16.6321 10.66 15.0454 10.66C13.7521 10.66 12.2854 11.2 10.6454 12.28L9.86539 9.92C11.4121 8.77333 13.2787 8.2 15.4654 8.2C17.0521 8.2 18.2521 8.56 19.0654 9.28C19.8787 10 20.2854 11.06 20.2854 12.46C20.2854 13.1 20.1721 13.7333 19.9454 14.36C19.7321 14.9867 19.3854 15.6267 18.9054 16.28C18.4254 16.92 17.8121 17.5933 17.0654 18.3C16.3321 18.9933 15.4387 19.7333 14.3854 20.52V20.56H20.4254V23H10.3654V20.56Z" fill="white"/>
</svg>
